<?xml version="1.0" encoding="utf-8"?>
<!-- Generator: Adobe Illustrator 27.1.1, SVG Export Plug-In . SVG Version: 6.00 Build 0)  -->
<svg version="1.1" xmlns="http://www.w3.org/2000/svg" xmlns:xlink="http://www.w3.org/1999/xlink" x="0px" y="0px"
	 viewBox="0 0 538.6 10.4" style="enable-background:new 0 0 538.6 10.4;" xml:space="preserve">
<style type="text/css">
	.st0{fill:none;stroke:#0072BC;stroke-width:0.75;}
	.st1{fill:#0973B9;}
</style>
<g id="Layer_1">
</g>
<g id="banner">
	<polyline class="st0" points="0,0.4 44.9,0.4 53.3,9.8 61.7,0.4 538.6,0.4 	"/>
	<g>
		<path class="st1" d="M20.7-27c0.4,0,0.4-0.2,0.4-0.7v-2.1c0-0.4,0-0.6,0.2-0.6c0.9,0,1.1-0.1,1.1-0.8v-7.7c0-2.1-1.5-1.8-1.9-2.5
			c-0.6-1,1.1-1,0.5-3.3c-0.2-0.5-0.6-0.8-1.3-0.8c-0.6-0.1-1.1,0.3-1.3,0.8c-0.6,2.2,1.1,2.2,0.5,3.3c-0.4,0.8-1.9,0.4-1.9,2.5v7.7
			c0,0.8,0.2,0.8,1.1,0.8c0.2,0,0.2,0.1,0.2,0.6v2.1c0,0.4,0,0.7,0.4,0.7L20.7-27"/>
		<path class="st1" d="M14-43.7c-0.8,0.8-2,2.7-1.2,4.2c1.6,0.6,1.5-5,3.4-4.9c1,0.9-0.3,3.6-0.7,4.7c-0.5,1.4-0.9,4.5-1.8,5.9
			c-0.8,1.2-0.2,5.1-0.4,6.4c-0.7,0.7-2.4,0.2-3.2,0.1c-0.1-1.7-0.2-3.4-0.4-5.1c0-0.5-0.5-8-0.1-8.9c0.9-1.9,5.5-5.5,6.2-6.2
			c0.6-0.7,2.5-2.6,3.3-2.6c0.5,0.4,0.2,1.2,0.1,1.6C18.4-46.6,15.1-44.7,14-43.7"/>
		<path class="st1" d="M25.4-43.7c0.7,0.8,1.9,2.7,1.2,4.2c-1.6,0.6-1.5-5-3.5-4.9c-1,0.9,0.3,3.6,0.7,4.7c0.5,1.4,0.9,4.5,1.8,5.9
			c0.8,1.2,0.2,5.1,0.4,6.4c0.7,0.7,2.4,0.2,3.2,0.1c0.1-1.7,0.2-3.4,0.4-5.1c0-0.5,0.6-8,0.1-8.9c-0.9-1.9-5.5-5.5-6.1-6.2
			C23-48.1,21.1-50,20.3-50c-0.6,0.4-0.2,1.2-0.1,1.6C21-46.6,24.2-44.7,25.4-43.7"/>
		<path class="st1" d="M7.2-46.2c-0.4,0.4-1.3,0.7-2,1.5C5-45.2,5.6-46.3,6.3-47c0.6-0.5,1.3-1,2-1.3C8.6-47.7,7.7-46.8,7.2-46.2"/>
		<path class="st1" d="M5.9-43.2C5-42.5,4.2-41.8,3.5-41c-0.3-1.2-0.4-2.4-0.1-3.6c0.3-1.1,0.9-2.4,1.9-2.8
			c-0.3,0.9-0.5,1.8-0.6,2.7C4.2-43,4-43,4.1-42.8c0.1,0,0.6-0.9,1.3-1.5c0.7-0.6,1.6-1,2.4-1.4C7.3-44.7,6.7-43.9,5.9-43.2"/>
		<path class="st1" d="M2.5-36.4c-0.8-1.3-1.1-2.9-1.1-4.4c0.1-1,0.5-3.3,1.3-3.7c-0.2,2.1,0.3,2.3,0.1,4c0,0.1-0.3,1.9-0.3,2
			c0.3-0.1,0-1.7,3.4-4c-0.7,1.3-0.4,1.7-1.7,3.4C3.4-38.4,2.8-37.4,2.5-36.4"/>
		<path class="st1" d="M3.8-34.8c-0.4,0.6-0.7,1.3-0.8,2c-1.7-1-3.6-4.9-2.9-6.8c0.4,1.5,1.1,1.8,1.5,3c0.8,1.8,0.6,2.4,1.1,2.8
			c0-1,0.1-2,0.5-2.9c0.3-0.7,0.7-1.3,1.2-1.9C4.8-37.3,4.6-35.9,3.8-34.8"/>
		<path class="st1" d="M5.3-31.5c0,1.1-0.2,2.2-0.4,3.3c-2.5-1-4.2-3.3-4.4-5.9c0.9,2,2.2,2,3.9,4.8c0.1-1.1-0.3-0.3-0.3-2.3
			s0.5-2.2,0.6-3.5C5.1-34.5,5.3-32.2,5.3-31.5"/>
		<path class="st1" d="M7.7-27.2c0.2,1.1,0.3,2.4,0.5,3.4c-1.7-0.6-2.1-0.2-4.1-1.4c-0.9-0.5-2.5-2.5-2.4-4c0.9,1.1,2,2,3.3,2.8
			c0.9,0.7,1.6,1.8,2.2,1.6c0-0.6-1.5-1.9-1.3-5.5C6.8-29.5,7.3-28.4,7.7-27.2"/>
		<path class="st1" d="M11-24.5c0.5,0.9,1,1.8,1.7,2.6c-1.1,0.4-2.3,0.6-3.5,0.7c-0.8,0-3.8-0.8-4.7-2.8c1.7,0.9,1.7,0.7,4,1.2
			c1.1,0.3,2.1,0.6,3.2,0.8c-0.8-0.5-1.6-1.1-2.3-1.8c-0.9-1.2-0.7-2.5-1.4-3.4C8.6-27.4,10.6-25,11-24.5"/>
		<path class="st1" d="M32-46.2c0.4,0.4,1.3,0.7,2,1.5c0.3-0.5-0.4-1.6-1.2-2.2c-0.6-0.5-1.3-1-2-1.3C30.6-47.7,31.5-46.8,32-46.2"
			/>
		<path class="st1" d="M33.3-43.2c0.9,0.6,1.7,1.3,2.4,2.1c0.3-1.2,0.4-2.4,0.1-3.6c-0.2-1.1-0.9-2.1-1.9-2.8
			c0.3,0.9,0.5,1.8,0.6,2.7c0.4,1.6,0.7,1.7,0.6,1.9c-0.1,0-0.6-0.9-1.3-1.5c-0.7-0.6-1.5-1-2.4-1.4C31.9-44.7,32.5-43.9,33.3-43.2"
			/>
		<path class="st1" d="M36.7-36.4c0.8-1.3,1.2-2.9,1.1-4.4c-0.1-1-0.5-3.3-1.3-3.7c0.2,2.1-0.4,2.3-0.1,4c0,0.1,0.2,1.9,0.2,2
			c-0.3-0.1,0-1.7-3.4-4c0.7,1.3,0.4,1.7,1.7,3.4C35.8-38.4,36.4-37.5,36.7-36.4"/>
		<path class="st1" d="M35.4-34.8c0.4,0.6,0.6,1.3,0.7,2c1.7-1,3.6-4.9,2.9-6.8c-0.4,1.5-1,1.8-1.5,3c-0.8,1.8-0.7,2.4-1.1,2.8
			c0-1-0.2-2-0.6-2.9c-0.3-0.7-0.7-1.3-1.2-2C34.4-37.3,34.6-35.9,35.4-34.8"/>
		<path class="st1" d="M33.9-31.5c0.1,1.1,0.2,2.2,0.4,3.3c2.5-1,4.2-3.3,4.4-5.9c-0.9,2-2.2,2-3.9,4.8c-0.2-1.1,0.3-0.3,0.3-2.3
			s-0.5-2.2-0.6-3.5C34.1-34.5,33.9-32.2,33.9-31.5"/>
		<path class="st1" d="M31.4-27.2c-0.2,1.1-0.3,2.4-0.5,3.4c1.6-0.6,2.1-0.2,4-1.4c0.9-0.5,2.5-2.5,2.5-4c-0.9,1.1-2,2-3.2,2.8
			c-0.9,0.7-1.6,1.8-2.3,1.6c-0.1-0.6,1.4-1.9,1.3-5.5C32.4-29.5,31.8-28.4,31.4-27.2"/>
		<path class="st1" d="M28.1-24.5c-0.4,0.9-1,1.8-1.7,2.6c1.1,0.4,2.3,0.6,3.5,0.7c0.8,0,3.7-0.8,4.7-2.8c-1.7,0.9-1.7,0.7-4,1.2
			c-1.1,0.3-2.1,0.6-3.2,0.8c0.8-0.5,1.5-1.1,2.2-1.8c0.9-1.2,0.7-2.5,1.4-3.4C30.5-27.4,28.5-25,28.1-24.5"/>
		<path class="st1" d="M15.4-17.6l-0.5-0.3c2.2-2.4,5.2-3.6,8.4-3.5c5.3,0.3,5,1.5,7.8,1.3c0.3,0-0.2,0.4-0.2,0.4
			c-2,0.6-4.2,0.6-6.2-0.1C21.3-20.9,19.1-21.6,15.4-17.6"/>
		<path class="st1" d="M23.9-17.6l0.5-0.3c-2.1-2.4-5.2-3.7-8.4-3.5c-5.4,0.3-5,1.5-7.8,1.3c-0.3,0,0.2,0.4,0.2,0.4
			c2,0.6,4.2,0.6,6.2-0.1C18-20.9,20.2-21.6,23.9-17.6"/>
		<path class="st1" d="M61.7-34.1c0,5.1-2.8,7.6-8.4,7.6s-8.4-2.5-8.4-7.6v-11.3h5.7v10c0,1.9,0,4.2,2.8,4.2s2.7-2.3,2.7-4.2v-10
			h5.7L61.7-34.1"/>
		<polygon class="st1" points="65.1,-45.4 70.9,-45.4 76.2,-35.5 76.3,-35.5 76.3,-45.4 81.7,-45.4 81.7,-27 76.1,-27 70.5,-37 
			70.4,-37 70.4,-27 65.1,-27 65.1,-45.4 		"/>
		<polygon class="st1" points="85.1,-45.4 90.8,-45.4 90.8,-39 96.2,-39 96.2,-45.4 101.8,-45.4 101.8,-27 96.2,-27 96.2,-34.3 
			90.8,-34.3 90.8,-27 85.1,-27 85.1,-45.4 		"/>
		<path class="st1" d="M116.4-38.5c-0.1-1.6-1.4-2.7-3-2.7c-2.7,0-3.5,2.6-3.5,5.1s0.9,5,3.5,5c1.9,0,2.7-1.3,3-3.1h5.6
			c0,3.7-3,7.7-8.4,7.7c-6,0-9.3-4.2-9.3-9.7c0-5.8,3.7-9.7,9.3-9.7c5.1,0,7.8,2.7,8.3,7.3L116.4-38.5"/>
		<path class="st1" d="M124.3-27h5.7v-6.4h3c2.2,0,2.4,1.8,2.6,3.6c0.1,1,0.2,1.9,0.5,2.8h5.7c-0.5-0.9-0.5-3-0.6-3.9
			c-0.2-2.3-1.2-4-2.7-4.6c1.8-0.8,2.9-2.7,2.8-4.6c0-3.5-2.8-5.3-6-5.3h-10.8L124.3-27 M130-41h2.7c2.2,0,2.8,0.7,2.8,1.8
			c0,1.7-1.5,1.8-2.5,1.8h-3L130-41L130-41z"/>
		<polygon class="st1" points="46.7,-22.7 44.9,-22.7 44.9,-23.9 49.9,-23.9 49.9,-22.7 48.1,-22.7 48.1,-17.7 46.7,-17.7 
			46.7,-22.7 		"/>
		<path class="st1" d="M50.3-23.9h1.2v2.4l0,0c0.3-0.5,0.8-0.7,1.3-0.7c1.3,0,1.6,0.7,1.6,1.8v2.8h-1.2v-2.5c0-0.7-0.2-1.1-0.8-1.1
			s-1,0.4-1,1.3v2.3h-1.2V-23.9"/>
		<path class="st1" d="M58.3-20.4c-0.1-0.6-0.4-1-1-1c-0.6,0-1,0.4-1,1H58.3 M56.3-19.6c0,0.8,0.4,1.1,1.1,1.1c0.4,0,0.8-0.2,1-0.6
			h1.1c-0.2,0.9-1.1,1.6-2.1,1.5c-1.2,0.1-2.2-0.9-2.3-2.1c0-0.1,0-0.2,0-0.3c0-1.2,0.9-2.3,2.2-2.3c1.2,0,2.3,0.9,2.3,2.2
			c0,0.1,0,0.3,0,0.4H56.3z"/>
		<path class="st1" d="M67.5-20c0,1.7-1,2.5-2.6,2.5c-1.6,0-2.6-0.8-2.6-2.5v-3.8h1.4v3.8c0,0.7,0.2,1.3,1.3,1.3s1.3-0.4,1.3-1.3
			v-3.8h1.4L67.5-20"/>
		<polygon class="st1" points="68.4,-23.9 69.8,-23.9 72.3,-19.7 72.3,-19.7 72.3,-23.9 73.6,-23.9 73.6,-17.7 72.3,-17.7 
			69.7,-21.8 69.7,-21.8 69.7,-17.7 68.4,-17.7 68.4,-23.9 		"/>
		<path class="st1" d="M76.6-17.7H78v-2.4h1.3c0.7,0,0.9,0.3,1,0.9c0,0.5,0.1,1,0.2,1.5h1.4c-0.2-0.5-0.3-1-0.3-1.5
			c-0.1-0.6-0.2-1.3-0.9-1.4l0,0c0.6-0.2,1.1-0.9,1-1.5c0-0.9-0.7-1.7-1.7-1.7c0,0-0.1,0-0.1,0h-3.3V-17.7 M78-22.8h1.5
			c0.6,0,0.9,0.3,0.9,0.9c0,0.6-0.3,0.9-0.9,0.9h-1.5L78-22.8L78-22.8z"/>
		<path class="st1" d="M86.8-19.6c0.2-1.2-0.6-2.4-1.9-2.6c-1.2-0.2-2.4,0.6-2.6,1.9c0,0.1,0,0.3,0,0.4c-0.1,1.2,0.8,2.3,2,2.3
			c0.1,0,0.2,0,0.3,0c1,0.1,1.9-0.6,2.1-1.5h-1.1c-0.2,0.4-0.6,0.6-1,0.6c-0.7,0-1.1-0.4-1.1-1.1H86.8 M83.6-20.4c0-0.6,0.4-1,1-1
			c0.6,0,0.9,0.3,1,1H83.6z"/>
		<path class="st1" d="M87.6-21.3h-0.7v-0.8h0.7v-0.4c0-0.7,0.5-1.3,1.2-1.4c0.1,0,0.2,0,0.2,0c0.2,0,0.4,0,0.7,0v0.9h-0.5
			c-0.3,0-0.5,0.1-0.5,0.5v0.3h0.9v0.8h-0.9v3.6h-1.2V-21.3"/>
		<path class="st1" d="M94.2-17.7h-1.2v-0.6l0,0c-0.3,0.5-0.8,0.7-1.4,0.7c-1.3,0-1.6-0.7-1.6-1.8v-2.7h1.2v2.5
			c0,0.7,0.2,1.1,0.8,1.1c0.6,0,1-0.4,1-1.3v-2.3h1.2L94.2-17.7"/>
		<path class="st1" d="M99.3-22.2h-1.2v0.6l0,0c-0.3-0.5-0.8-0.8-1.3-0.7c-1.1,0-2,1-1.9,2.1c0,0,0,0.1,0,0.1c0,1.2,0.6,2.2,1.9,2.2
			c0.5,0,1.1-0.2,1.3-0.7l0,0v0.6c0,0.6-0.3,1.1-1,1.1c-0.4,0.1-0.8-0.2-0.9-0.6H95c0.1,1,1.1,1.4,2,1.4c2.1,0,2.3-1.3,2.3-2
			L99.3-22.2 M97.1-18.7c-0.8,0-1-0.7-1-1.3c0-0.6,0.3-1.3,1-1.3s1,0.7,1,1.4C98.1-19.4,97.7-18.8,97.1-18.7
			C97.1-18.7,97.1-18.7,97.1-18.7"/>
		<path class="st1" d="M104.3-19.6c0.2-1.2-0.6-2.4-1.9-2.6c-1.2-0.2-2.4,0.6-2.6,1.9c0,0.1,0,0.3,0,0.4c-0.1,1.2,0.8,2.3,2,2.3
			c0.1,0,0.2,0,0.3,0c1,0.1,1.9-0.6,2.1-1.5h-1.1c-0.2,0.4-0.6,0.6-1,0.6c-0.7,0-1.1-0.4-1.1-1.1H104.3 M101.1-20.4c0-0.6,0.4-1,1-1
			c0.6,0,0.9,0.3,1,1H101.1z"/>
		<path class="st1" d="M109.1-19.6c0.2-1.2-0.6-2.4-1.9-2.6c-1.2-0.2-2.4,0.6-2.6,1.9c0,0.1,0,0.3,0,0.4c-0.1,1.2,0.8,2.3,2,2.3
			c0.1,0,0.2,0,0.3,0c1,0.1,1.9-0.6,2.1-1.5H108c-0.2,0.4-0.6,0.6-1,0.6c-0.7,0-1.1-0.4-1.1-1.1H109.1 M105.9-20.4c0-0.6,0.4-1,1-1
			c0.6,0,0.9,0.3,1,1H105.9z"/>
		<path class="st1" d="M111.7-17.7h1.4l0.5-1.4h2.3l0.5,1.4h1.4l-2.3-6.2h-1.4L111.7-17.7L111.7-17.7z M114.8-22.3L114.8-22.3
			l0.8,2.3h-1.6L114.8-22.3L114.8-22.3z"/>
		<path class="st1" d="M122.3-22.2h-1.2v0.6l0,0c-0.3-0.5-0.8-0.8-1.3-0.7c-1.1,0-2,1-1.9,2.1c0,0,0,0.1,0,0.1
			c0,1.2,0.6,2.2,1.9,2.2c0.5,0,1.1-0.2,1.3-0.7l0,0v0.6c0,0.6-0.3,1.1-1,1.1c-0.4,0.1-0.8-0.2-0.9-0.6H118c0.1,1,1.1,1.4,2,1.4
			c2.1,0,2.3-1.3,2.3-2L122.3-22.2 M120.1-18.7c-0.8,0-1-0.7-1-1.3c0-0.6,0.3-1.3,1-1.3c0.7,0,1,0.7,1,1.4
			C121.2-19.4,120.8-18.8,120.1-18.7C120.1-18.7,120.1-18.7,120.1-18.7"/>
		<path class="st1" d="M127.4-19.6c0.2-1.2-0.6-2.4-1.9-2.6c-1.2-0.2-2.4,0.6-2.6,1.9c0,0.1,0,0.3,0,0.4c-0.1,1.2,0.8,2.3,2,2.3
			c0.1,0,0.2,0,0.3,0c1,0.1,1.9-0.6,2.1-1.5h-1.1c-0.2,0.4-0.6,0.6-1,0.6c-0.7,0-1.1-0.4-1.1-1.1H127.4 M124.1-20.4c0-0.6,0.4-1,1-1
			c0.6,0,0.9,0.3,1,1H124.1z"/>
		<path class="st1" d="M127.9-22.2h1.2v0.6l0,0c0.3-0.5,0.8-0.7,1.4-0.7c1.3,0,1.6,0.7,1.6,1.8v2.8h-1.2v-2.5c0-0.7-0.2-1.1-0.8-1.1
			c-0.6,0-1,0.4-1,1.3v2.3h-1.2L127.9-22.2"/>
		<path class="st1" d="M135.9-20.6c0-0.5-0.4-0.8-0.9-0.8c0,0,0,0,0,0c-0.8,0-1,0.8-1,1.5s0.3,1.4,1,1.4c0.5,0,1-0.4,1-0.9h1.2
			c-0.1,1.1-1.1,1.9-2.2,1.8c-1.2,0-2.2-0.9-2.3-2.1c0-0.1,0-0.1,0-0.2c-0.1-1.2,0.8-2.3,2-2.4c0.1,0,0.2,0,0.3,0
			c1-0.1,2,0.6,2.1,1.7c0,0,0,0,0,0H135.9"/>
		<path class="st1" d="M139.9-17.1c-0.2,0.7-0.8,1.1-1.5,1c-0.3,0-0.5,0-0.8,0v-1c0.2,0,0.5,0,0.7,0c0.3,0,0.5-0.3,0.5-0.6
			c0-0.1,0-0.1-0.1-0.2l-1.6-4.2h1.3l1,3l0,0l1-3h1.3L139.9-17.1"/>
	</g>
</g>
</svg>
