<?xml version="1.0" encoding="utf-8"?>
<!-- Generator: Adobe Illustrator 25.2.0, SVG Export Plug-In . SVG Version: 6.00 Build 0)  -->
<svg version="1.1" id="Layer_1" xmlns="http://www.w3.org/2000/svg" xmlns:xlink="http://www.w3.org/1999/xlink" x="0px" y="0px"
	 viewBox="0 0 225.9 54.3" style="enable-background:new 0 0 225.9 54.3;" xml:space="preserve">
<style type="text/css">
	.st0{fill:#FFFFFF;}
</style>
<path class="st0" d="M33,36.7c0.6,0,0.6-0.4,0.6-1v-3.3c0-0.7-0.1-0.9,0.3-0.9c1.4,0,1.7-0.1,1.7-1.3V17.9c0-3.3-2.4-2.8-3-4
	c-1-1.6,1.8-1.6,0.8-5.2c-0.3-0.9-1.2-1.4-2.1-1.3c-0.9-0.1-1.8,0.4-2.1,1.3c-1,3.6,1.7,3.6,0.8,5.2c-0.7,1.2-3,0.7-3,4v12.3
	c0,1.2,0.4,1.3,1.7,1.3c0.4,0,0.3,0.2,0.3,0.9v3.3c0,0.7-0.1,1,0.6,1H33"/>
<path class="st0" d="M22.3,10.1c-1.2,1.3-3.1,4.3-1.9,6.8c2.5,1,2.3-8,5.5-7.9c1.6,1.4-0.5,5.7-1.1,7.5c-0.8,2.3-1.4,7.1-2.9,9.5
	c-1.2,2-0.3,8.1-0.7,10.2c-1,1-3.9,0.3-5.1,0.1c-0.1-2.7-0.3-5.5-0.7-8.2c0-0.8-0.9-12.7-0.2-14.1c1.4-3,8.8-8.7,9.8-9.8
	S29,0,30.3,0c0.9,0.6,0.4,2,0.2,2.5C29.3,5.5,24,8.5,22.3,10.1"/>
<path class="st0" d="M40.4,10.1c1.2,1.3,3.1,4.3,1.9,6.8c-2.6,1-2.4-8-5.5-7.9c-1.5,1.4,0.5,5.7,1.1,7.5c0.8,2.3,1.4,7.1,2.9,9.5
	c1.2,2,0.3,8.1,0.7,10.2c1.1,1,3.9,0.3,5.1,0.1c0.1-2.7,0.3-5.5,0.7-8.2c0.1-0.8,0.9-12.7,0.2-14.1c-1.4-3-8.8-8.7-9.8-9.8
	S33.6,0,32.4,0c-0.9,0.6-0.3,2-0.2,2.5C33.5,5.5,38.7,8.5,40.4,10.1"/>
<path class="st0" d="M11.5,6.1c-0.7,0.6-2.1,1.1-3.2,2.4C7.9,7.8,8.9,6,10.1,4.9c1-0.8,2.1-1.5,3.2-2.1C13.7,3.7,12.3,5.1,11.5,6.1"
	/>
<path class="st0" d="M9.4,11c-1.1,1-2.3,1.5-3.9,3.4C5,12.5,4.9,10.6,5.3,8.7c0.6-1.8,1.5-3.8,3-4.4C7.8,5.7,7.5,7.1,7.4,8.6
	c-0.7,2.6-1,2.7-0.9,3c0.2,0,1-1.4,2.1-2.4c1.2-1.2,2.8-1.5,3.8-2.3C11.6,8.4,10.6,9.8,9.4,11"/>
<path class="st0" d="M3.9,21.8c-1.2-2.1-1.8-4.6-1.8-7c0.1-1.6,0.9-5.3,2-5.9c-0.3,3.4,0.6,3.7,0.2,6.4c0,0.1-0.4,3-0.4,3.2
	c0.5-0.1,0-2.6,5.4-6.4c-1.2,2-0.6,2.6-2.7,5.3C5.4,18.6,4.4,20.1,3.9,21.8"/>
<path class="st0" d="M6.1,24.3c-0.7,0.9-1.1,2-1.2,3.2C2.2,26-0.9,19.8,0.2,16.7c0.7,2.3,1.7,2.9,2.4,4.8c1.2,2.9,1,3.8,1.8,4.5
	c-0.1-1.6,0.2-3.2,0.9-4.6c0.6-1.1,1.2-2.1,1.9-3.1C7.7,20.4,7.3,22.1,6.1,24.3"/>
<path class="st0" d="M8.5,29.6c-0.1,1.7-0.3,3.5-0.6,5.2c-4.6-1.5-7.1-6.8-7.1-9.4c1.4,3.2,3.5,3.2,6.2,7.7c0.2-1.7-0.5-0.4-0.6-3.7
	c0.1-3.4,0.8-3.5,0.9-5.6C8.2,24.7,8.5,28.5,8.5,29.6"/>
<path class="st0" d="M12.3,36.4c0.4,1.8,0.5,3.8,0.8,5.3c-2.7-1-3.3-0.2-6.5-2.2c-1.4-0.8-4-4.1-3.9-6.4c3.1,3.5,3.7,3.1,5.2,4.4
	c1.4,1.1,2.5,2.8,3.6,2.6c0.1-0.9-2.3-3-2-8.8C10.8,32.8,11.7,34.5,12.3,36.4"/>
<path class="st0" d="M17.6,40.8c0.8,1.2,0.6,1.7,2.7,4.1c-1.8,0.6-3.6,0.9-5.5,1.1c-1.3,0-6-1.2-7.6-4.4c2.7,1.4,2.7,1.1,6.3,1.9
	c2.6,0.6,4.4,1.4,5.1,1.3c-0.1-0.3-2.1-1.2-3.5-2.9s-1-3.9-2.3-5.4C13.7,36.1,16.9,39.9,17.6,40.8"/>
<path class="st0" d="M51,6.1c0.6,0.6,2.2,1.1,3.1,2.4c0.4-0.7-0.6-2.5-1.8-3.6c-1-0.8-2-1.5-3.2-2.1C48.7,3.7,50.1,5.1,51,6.1"/>
<path class="st0" d="M53.1,11c1.1,1,2.3,1.5,3.9,3.4c0.5-1.9,0.6-3.8,0.2-5.7c-0.5-1.8-1.5-3.8-3-4.4c0.5,1.4,0.8,2.8,0.9,4.3
	c0.7,2.6,1,2.7,0.9,3c-0.2,0-1-1.4-2.1-2.4c-1.2-1.2-2.7-1.5-3.8-2.3C50.9,8.4,51.9,9.8,53.1,11"/>
<path class="st0" d="M58.5,21.8c1.2-2.1,1.8-4.5,1.8-7c-0.1-1.6-0.9-5.3-2-5.9c0.3,3.4-0.6,3.7-0.2,6.4c0,0.1,0.3,3,0.3,3.2
	c-0.4-0.1,0-2.6-5.3-6.4c1.1,2,0.6,2.6,2.7,5.3C57.1,18.6,58,20.1,58.5,21.8"/>
<path class="st0" d="M56.4,24.3c0.6,1,1,2.1,1.2,3.2c2.7-1.6,5.8-7.8,4.6-10.8c-0.7,2.3-1.7,2.9-2.3,4.8c-1.3,2.9-1.1,3.8-1.8,4.5
	c0-1.6-0.3-3.1-0.9-4.6c-0.5-1.1-1.2-2.1-1.9-3.1C54.8,20.4,55.2,22.5,56.4,24.3"/>
<path class="st0" d="M54,29.6c0.1,1.8,0.3,3.5,0.7,5.2c4.6-1.5,7.1-6.8,7.1-9.4c-1.5,3.2-3.5,3.2-6.2,7.7c-0.2-1.7,0.5-0.4,0.5-3.7
	s-0.8-3.5-0.9-5.6C54.3,24.7,54,28.5,54,29.6"/>
<path class="st0" d="M50.1,36.4c-0.4,1.8-0.5,3.8-0.7,5.3c2.6-1,3.3-0.2,6.4-2.2c1.4-0.8,4.1-4.1,3.9-6.4c-3.1,3.5-3.7,3.1-5.2,4.4
	c-1.4,1.1-2.6,2.8-3.6,2.6c-0.1-0.9,2.3-3,2-8.8C51.7,32.8,50.7,34.5,50.1,36.4"/>
<path class="st0" d="M44.9,40.8c-0.7,1.5-1.6,2.9-2.7,4.1c1.8,0.6,3.6,0.9,5.5,1.1c1.3,0,6-1.2,7.5-4.4c-2.7,1.4-2.7,1.1-6.3,1.9
	c-2.6,0.6-4.4,1.4-5.1,1.3c0.2-0.3,2.2-1.2,3.5-2.9s1-3.9,2.3-5.4C48.7,36.1,45.6,39.9,44.9,40.8"/>
<path class="st0" d="M24.6,51.8l-0.8-0.4c3.4-3.8,8.4-5.8,13.5-5.6c8.5,0.5,7.9,2.5,12.5,2.1c0.5,0-0.4,0.6-0.4,0.6
	c-3.3,1-6.8,1-10-0.2C33.9,46.5,30.3,45.4,24.6,51.8"/>
<path class="st0" d="M38,51.8l0.8-0.4c-3.4-3.8-8.3-5.8-13.4-5.6c-8.5,0.5-7.9,2.5-12.5,2.1c-0.5,0,0.4,0.6,0.4,0.6
	c3.3,1,6.8,1,10-0.2C28.8,46.5,32.3,45.4,38,51.8"/>
<path class="st0" d="M98.3,25.5c0,8.1-4.4,12.1-13.4,12.1s-13.4-3.9-13.4-12.1v-18h9v16c0,3,0,6.8,4.4,6.8s4.3-3.8,4.3-6.8v-16h9.1
	V25.5"/>
<polygon class="st0" points="103.7,7.4 113,7.4 121.6,23.1 121.6,23.1 121.6,7.4 130.2,7.4 130.2,36.8 121.4,36.8 112.4,20.8 
	112.3,20.8 112.3,36.8 103.7,36.8 "/>
<polygon class="st0" points="135.8,7.4 144.8,7.4 144.8,17.6 153.3,17.6 153.3,7.4 162.3,7.4 162.3,36.8 153.3,36.8 153.3,25.2 
	144.8,25.2 144.8,36.8 135.8,36.8 "/>
<path class="st0" d="M185.5,18.4c-0.2-2.4-2.3-4.3-4.7-4.3c-4.2,0-5.6,4.1-5.6,8.1s1.4,8.1,5.6,8.1c3,0,4.2-2.1,4.8-4.9h8.9
	c0,5.9-4.8,12.2-13.4,12.2c-9.5,0-14.9-6.7-14.9-15.4c0-9.3,5.8-15.4,14.9-15.4c8.1,0,12.5,4.3,13.3,11.6L185.5,18.4"/>
<path class="st0" d="M207.3,14.4h4.2c3.5,0,4.5,1.1,4.5,2.9c0,2.6-2.3,2.9-4,2.9h-4.7V14.4z M198.2,36.8h9.1V26.6h4.8
	c3.6,0,3.8,2.9,4.1,5.7c0.1,1.5,0.3,3,0.7,4.5h9c-0.8-1.4-0.9-4.9-1-6.3c-0.3-3.7-1.9-6.4-4.3-7.3c3-1.1,4.4-4.3,4.4-7.4
	c0-5.6-4.4-8.4-9.6-8.4h-17.2V36.8"/>
<polygon class="st0" points="74.5,43.6 71.5,43.6 71.5,41.7 79.6,41.7 79.6,43.6 76.6,43.6 76.6,51.6 74.5,51.6 "/>
<path class="st0" d="M80.3,41.7h2v3.7l0,0c0.4-0.7,1.2-1.2,2.1-1.2c2.1,0,2.6,1.2,2.6,2.9v4.4h-2v-4c0-1.2-0.3-1.8-1.3-1.8
	s-1.5,0.6-1.5,2v3.7h-2L80.3,41.7"/>
<path class="st0" d="M89.7,48.5c0.1,1.2,0.7,1.8,1.8,1.8c0.6,0,1.2-0.3,1.5-0.9h1.7c-0.4,1.5-1.8,2.5-3.3,2.4
	c-1.9,0.1-3.5-1.4-3.6-3.3v-0.4c-0.1-2,1.4-3.7,3.4-3.8c0,0,0,0,0,0h0.3c2.4,0,3.6,2,3.5,4.2H89.7z M92.9,47.3
	c-0.2-1-0.6-1.5-1.6-1.5c-0.8,0-1.5,0.6-1.6,1.4v0.1H92.9"/>
<path class="st0" d="M107.6,47.9c0,2.7-1.6,4-4.2,4s-4.2-1.3-4.2-4v-6.1h2.2v6.1c0,1.1,0.3,2.1,2,2.1c1.5,0,2-0.7,2-2.1v-6.1h2.2
	V47.9"/>
<polygon class="st0" points="109,41.7 111.2,41.7 115.3,48.3 115.3,48.3 115.3,41.7 117.4,41.7 117.4,51.6 115.2,51.6 111.1,45 
	111.1,45 111.1,51.6 109,51.6 "/>
<path class="st0" d="M124.2,43.4h2.4c1,0,1.5,0.4,1.5,1.4s-0.5,1.4-1.5,1.4h-2.4L124.2,43.4z M122.1,51.6h2.2v-3.8h2.2
	c1.1,0,1.5,0.5,1.6,1.5c0,0.8,0.1,1.6,0.4,2.4h2.2c-0.3-0.7-0.4-1.5-0.4-2.3c-0.1-1-0.4-2-1.4-2.3l0,0c1-0.4,1.7-1.4,1.6-2.5
	c0-1.5-1.2-2.7-2.7-2.7c0,0,0,0,0,0h-5.5L122.1,51.6"/>
<path class="st0" d="M133.2,47.3c0-0.8,0.7-1.5,1.5-1.5h0.1c0.9,0,1.4,0.5,1.6,1.5H133.2z M138.3,48.5c0.1-2.2-1-4.2-3.5-4.2
	c-1.9-0.1-3.5,1.5-3.6,3.4c0,0,0,0.1,0,0.1V48c-0.2,1.9,1.2,3.5,3.1,3.7c0,0,0.1,0,0.1,0h0.4c1.5,0.1,2.9-0.9,3.3-2.4h-1.7
	c-0.3,0.6-0.9,1-1.5,0.9c-1.1,0-1.7-0.6-1.8-1.8L138.3,48.5"/>
<path class="st0" d="M139.6,45.8h-1.2v-1.3h1.2V44c-0.1-1.1,0.8-2.1,1.9-2.2c0,0,0.1,0,0.1,0h0.4c0.3,0,0.7,0,1,0.1v1.5h-0.7
	c-0.5,0-0.7,0.2-0.7,0.8v0.4h1.4v1.3h-1.4v5.8h-2V45.8"/>
<path class="st0" d="M150.2,51.6h-1.9v-1l0,0c-0.5,0.7-1.3,1.2-2.2,1.2c-2.1,0-2.6-1.2-2.6-2.9v-4.4h2v4c0,1.2,0.4,1.8,1.3,1.8
	c1.1,0,1.5-0.6,1.5-2v-3.8h2v7.1"/>
<path class="st0" d="M154.7,49.9c-1.2,0-1.6-1.1-1.6-2.1s0.5-2,1.6-2c1.3,0,1.7,1,1.7,2.2c0.2,0.9-0.5,1.8-1.4,2c0,0-0.1,0-0.1,0
	C154.8,50,154.8,50,154.7,49.9 M158.3,44.5h-1.9v1l0,0c-0.4-0.8-1.2-1.2-2.1-1.1c-1.8,0.1-3.2,1.5-3.1,3.3c0,0.1,0,0.1,0,0.2
	c0,1.8,0.9,3.6,3,3.6c0.8,0,1.6-0.4,2.1-1.1l0,0v0.9c0,1-0.5,1.8-1.6,1.8c-0.7,0.1-1.3-0.3-1.5-1h-1.9c0.1,1.6,1.7,2.3,3.1,2.3
	c3.3,0,3.7-2,3.7-3.2L158.3,44.5"/>
<path class="st0" d="M161.2,47.3c0-0.8,0.7-1.5,1.5-1.5h0.1c1,0,1.4,0.5,1.6,1.5H161.2z M166.3,48.5c0.1-2.2-1-4.2-3.5-4.2
	c-1.9-0.1-3.5,1.5-3.6,3.4c0,0,0,0.1,0,0.1V48c-0.2,1.9,1.2,3.5,3.1,3.7c0,0,0.1,0,0.1,0h0.4c1.5,0.1,2.9-0.9,3.3-2.4h-1.7
	c-0.3,0.6-0.9,1-1.5,0.9c-1.1,0-1.7-0.6-1.8-1.8L166.3,48.5"/>
<path class="st0" d="M168.9,47.3c0-0.8,0.7-1.5,1.5-1.5c0,0,0.1,0,0.1,0h0.1c0.9,0,1.4,0.5,1.6,1.5H168.9z M174,48.5
	c0.1-2.2-1-4.2-3.5-4.2c-1.9-0.1-3.5,1.5-3.6,3.4c0,0,0,0.1,0,0.1V48c-0.2,1.9,1.2,3.5,3.1,3.7c0,0,0.1,0,0.1,0h0.4
	c1.5,0.1,2.9-0.9,3.3-2.4h-1.7c-0.3,0.6-0.9,1-1.6,0.9c-1.1,0-1.7-0.6-1.8-1.8L174,48.5"/>
<path class="st0" d="M183,44.2L183,44.2l1.2,3.6h-2.6L183,44.2z M178.2,51.6h2.2l0.8-2.2h3.7l0.7,2.2h2.3l-3.7-9.8H182L178.2,51.6z"
	/>
<path class="st0" d="M191.5,49.9c-1.2,0-1.6-1.1-1.6-2.1s0.5-2,1.6-2c1.3,0,1.7,1,1.7,2.2c0.1,1-0.5,1.8-1.5,2
	C191.6,50,191.5,50,191.5,49.9 M195,44.5h-1.9v1l0,0c-0.4-0.8-1.2-1.2-2.1-1.1c-1.8,0.1-3.2,1.5-3.1,3.3c0,0.1,0,0.1,0,0.2
	c0,1.8,0.9,3.6,3.1,3.6c0.8,0,1.6-0.4,2.1-1.1l0,0v0.9c0,1-0.5,1.8-1.6,1.8c-0.7,0.1-1.3-0.3-1.5-1h-1.9c0.1,1.6,1.7,2.3,3.1,2.3
	c3.3,0,3.7-2,3.7-3.2L195,44.5"/>
<path class="st0" d="M197.9,47.3c0-0.8,0.7-1.5,1.5-1.5c0,0,0.1,0,0.1,0h0.1c0.9,0,1.4,0.5,1.6,1.5H197.9z M203.1,48.5
	c0.1-2.2-1-4.2-3.5-4.2c-2,0-3.6,1.5-3.6,3.5V48c-0.2,1.9,1.2,3.5,3.1,3.7c0,0,0.1,0,0.1,0h0.4c1.5,0.1,2.9-0.9,3.3-2.4h-1.7
	c-0.3,0.6-0.9,1-1.6,0.9c-1.1,0-1.7-0.6-1.8-1.8L203.1,48.5"/>
<path class="st0" d="M203.9,44.5h1.9v1h0.1c0.5-0.7,1.3-1.2,2.2-1.2c2.1,0,2.6,1.2,2.6,2.9v4.4h-2v-4c0-1.2-0.3-1.8-1.3-1.8
	s-1.5,0.6-1.5,2v3.7h-2V44.5"/>
<path class="st0" d="M216.6,47c-0.1-0.7-0.7-1.2-1.4-1.2l0,0c-1.3,0-1.7,1.3-1.7,2.3s0.4,2.2,1.6,2.2c0.8,0,1.5-0.6,1.6-1.4h1.9
	c-0.1,1.7-1.5,3-3.2,2.9c-0.1,0-0.1,0-0.2,0l0,0c-1.9,0.1-3.5-1.4-3.6-3.3v-0.3c-0.2-1.9,1.1-3.6,3-3.8c0.1,0,0.1,0,0.2,0h0.5
	c1.7-0.2,3.2,1,3.4,2.7L216.6,47"/>
<path class="st0" d="M223,52.5c-0.3,1.1-1.4,1.8-2.5,1.6c-0.4,0-0.8,0-1.2-0.1v-1.6c0.4,0,0.8,0.1,1.1,0.1c0.5-0.1,0.8-0.6,0.8-1.1
	c0-0.1,0-0.2-0.1-0.3l-2.5-6.7h2.1l1.6,4.9l0,0l1.6-4.9h2L223,52.5"/>
</svg>
