<svg id="Layer_1" data-name="Layer 1" xmlns="http://www.w3.org/2000/svg" width="225.9" height="54.3" viewBox="0 0 225.9 54.3"><defs><style>.cls-1{fill:#0072bc;}</style></defs><path class="cls-1" d="M33,36.7c.6,0,.6-.4.6-1V32.4c0-.7-.1-.9.3-.9,1.4,0,1.7-.1,1.7-1.3V17.9c0-3.3-2.4-2.8-3-4-1-1.6,1.8-1.6.8-5.2a2,2,0,0,0-2.1-1.3,2,2,0,0,0-2.1,1.3c-1,3.6,1.7,3.6.8,5.2-.7,1.2-3,.7-3,4V30.2c0,1.2.4,1.3,1.7,1.3.4,0,.3.2.3.9v3.3c0,.7-.1,1,.6,1H33"/><path class="cls-1" d="M22.3,10.1c-1.2,1.3-3.1,4.3-1.9,6.8,2.5,1,2.3-8,5.5-7.9,1.6,1.4-.5,5.7-1.1,7.5-.8,2.3-1.4,7.1-2.9,9.5-1.2,2-.3,8.1-.7,10.2-1,1-3.9.3-5.1.1a81.76,81.76,0,0,0-.7-8.2c0-.8-.9-12.7-.2-14.1C16.6,11,24,5.3,25,4.2S29,0,30.3,0c.9.6.4,2,.2,2.5-1.2,3-6.5,6-8.2,7.6"/><path class="cls-1" d="M40.4,10.1c1.2,1.3,3.1,4.3,1.9,6.8-2.6,1-2.4-8-5.5-7.9-1.5,1.4.5,5.7,1.1,7.5.8,2.3,1.4,7.1,2.9,9.5,1.2,2,.3,8.1.7,10.2,1.1,1,3.9.3,5.1.1a75.58,75.58,0,0,1,.7-8.2c.1-.8.9-12.7.2-14.1-1.4-3-8.8-8.7-9.8-9.8S33.6,0,32.4,0c-.9.6-.3,2-.2,2.5,1.3,3,6.5,6,8.2,7.6"/><path class="cls-1" d="M11.5,6.1c-.7.6-2.1,1.1-3.2,2.4-.4-.7.6-2.5,1.8-3.6a17.68,17.68,0,0,1,3.2-2.1c.4.9-1,2.3-1.8,3.3"/><path class="cls-1" d="M9.4,11c-1.1,1-2.3,1.5-3.9,3.4a12.22,12.22,0,0,1-.2-5.7c.6-1.8,1.5-3.8,3-4.4a15.69,15.69,0,0,0-.9,4.3c-.7,2.6-1,2.7-.9,3,.2,0,1-1.4,2.1-2.4C9.8,8,11.4,7.7,12.4,6.9a17.3,17.3,0,0,1-3,4.1"/><path class="cls-1" d="M3.9,21.8a14.31,14.31,0,0,1-1.8-7c.1-1.6.9-5.3,2-5.9-.3,3.4.6,3.7.2,6.4,0,.1-.4,3-.4,3.2.5-.1,0-2.6,5.4-6.4-1.2,2-.6,2.6-2.7,5.3a10.74,10.74,0,0,0-2.7,4.4"/><path class="cls-1" d="M6.1,24.3a6.63,6.63,0,0,0-1.2,3.2C2.2,26-.9,19.8.2,16.7c.7,2.3,1.7,2.9,2.4,4.8,1.2,2.9,1,3.8,1.8,4.5a9,9,0,0,1,.9-4.6,32.07,32.07,0,0,1,1.9-3.1c.5,2.1.1,3.8-1.1,6"/><path class="cls-1" d="M8.5,29.6a46,46,0,0,1-.6,5.2C3.3,33.3.8,28,.8,25.4c1.4,3.2,3.5,3.2,6.2,7.7.2-1.7-.5-.4-.6-3.7.1-3.4.8-3.5.9-5.6.9.9,1.2,4.7,1.2,5.8"/><path class="cls-1" d="M12.3,36.4c.4,1.8.5,3.8.8,5.3-2.7-1-3.3-.2-6.5-2.2-1.4-.8-4-4.1-3.9-6.4,3.1,3.5,3.7,3.1,5.2,4.4,1.4,1.1,2.5,2.8,3.6,2.6.1-.9-2.3-3-2-8.8a14.15,14.15,0,0,1,2.8,5.1"/><path class="cls-1" d="M17.6,40.8c.8,1.2.6,1.7,2.7,4.1A25.54,25.54,0,0,1,14.8,46c-1.3,0-6-1.2-7.6-4.4,2.7,1.4,2.7,1.1,6.3,1.9,2.6.6,4.4,1.4,5.1,1.3-.1-.3-2.1-1.2-3.5-2.9s-1-3.9-2.3-5.4c.9-.4,4.1,3.4,4.8,4.3"/><path class="cls-1" d="M51,6.1c.6.6,2.2,1.1,3.1,2.4.4-.7-.6-2.5-1.8-3.6a14.77,14.77,0,0,0-3.2-2.1c-.4.9,1,2.3,1.9,3.3"/><path class="cls-1" d="M53.1,11c1.1,1,2.3,1.5,3.9,3.4a12.22,12.22,0,0,0,.2-5.7c-.5-1.8-1.5-3.8-3-4.4a15.69,15.69,0,0,1,.9,4.3c.7,2.6,1,2.7.9,3-.2,0-1-1.4-2.1-2.4C52.7,8,51.2,7.7,50.1,6.9a17.3,17.3,0,0,0,3,4.1"/><path class="cls-1" d="M58.5,21.8a14,14,0,0,0,1.8-7c-.1-1.6-.9-5.3-2-5.9.3,3.4-.6,3.7-.2,6.4,0,.1.3,3,.3,3.2-.4-.1,0-2.6-5.3-6.4,1.1,2,.6,2.6,2.7,5.3a9.28,9.28,0,0,1,2.7,4.4"/><path class="cls-1" d="M56.4,24.3a9.58,9.58,0,0,1,1.2,3.2c2.7-1.6,5.8-7.8,4.6-10.8-.7,2.3-1.7,2.9-2.3,4.8-1.3,2.9-1.1,3.8-1.8,4.5a11.79,11.79,0,0,0-.9-4.6,19.82,19.82,0,0,0-1.9-3.1,7.51,7.51,0,0,0,1.1,6"/><path class="cls-1" d="M54,29.6a30.92,30.92,0,0,0,.7,5.2c4.6-1.5,7.1-6.8,7.1-9.4-1.5,3.2-3.5,3.2-6.2,7.7-.2-1.7.5-.4.5-3.7s-.8-3.5-.9-5.6c-.9.9-1.2,4.7-1.2,5.8"/><path class="cls-1" d="M50.1,36.4c-.4,1.8-.5,3.8-.7,5.3,2.6-1,3.3-.2,6.4-2.2,1.4-.8,4.1-4.1,3.9-6.4-3.1,3.5-3.7,3.1-5.2,4.4-1.4,1.1-2.6,2.8-3.6,2.6-.1-.9,2.3-3,2-8.8a15.84,15.84,0,0,0-2.8,5.1"/><path class="cls-1" d="M44.9,40.8a16.19,16.19,0,0,1-2.7,4.1A26.81,26.81,0,0,0,47.7,46c1.3,0,6-1.2,7.5-4.4-2.7,1.4-2.7,1.1-6.3,1.9-2.6.6-4.4,1.4-5.1,1.3.2-.3,2.2-1.2,3.5-2.9s1-3.9,2.3-5.4c-.9-.4-4,3.4-4.7,4.3"/><path class="cls-1" d="M24.6,51.8l-.8-.4a17.2,17.2,0,0,1,13.5-5.6c8.5.5,7.9,2.5,12.5,2.1.5,0-.4.6-.4.6a15.56,15.56,0,0,1-10-.2c-5.5-1.8-9.1-2.9-14.8,3.5"/><path class="cls-1" d="M38,51.8l.8-.4a17,17,0,0,0-13.4-5.6c-8.5.5-7.9,2.5-12.5,2.1-.5,0,.4.6.4.6a15.56,15.56,0,0,0,10-.2c5.5-1.8,9-2.9,14.7,3.5"/><path class="cls-1" d="M98.3,25.5c0,8.1-4.4,12.1-13.4,12.1S71.5,33.7,71.5,25.5V7.5h9v16c0,3,0,6.8,4.4,6.8s4.3-3.8,4.3-6.8V7.5h9.1v18"/><polygon class="cls-1" points="103.7 7.4 113 7.4 121.6 23.1 121.6 23.1 121.6 7.4 130.2 7.4 130.2 36.8 121.4 36.8 112.4 20.8 112.3 20.8 112.3 36.8 103.7 36.8 103.7 7.4"/><polygon class="cls-1" points="135.8 7.4 144.8 7.4 144.8 17.6 153.3 17.6 153.3 7.4 162.3 7.4 162.3 36.8 153.3 36.8 153.3 25.2 144.8 25.2 144.8 36.8 135.8 36.8 135.8 7.4"/><path class="cls-1" d="M185.5,18.4a4.69,4.69,0,0,0-4.7-4.3c-4.2,0-5.6,4.1-5.6,8.1s1.4,8.1,5.6,8.1c3,0,4.2-2.1,4.8-4.9h8.9c0,5.9-4.8,12.2-13.4,12.2-9.5,0-14.9-6.7-14.9-15.4,0-9.3,5.8-15.4,14.9-15.4,8.1,0,12.5,4.3,13.3,11.6h-8.9"/><path class="cls-1" d="M207.3,14.4h4.2c3.5,0,4.5,1.1,4.5,2.9,0,2.6-2.3,2.9-4,2.9h-4.7Zm-9.1,22.4h9.1V26.6h4.8c3.6,0,3.8,2.9,4.1,5.7a23.38,23.38,0,0,0,.7,4.5h9c-.8-1.4-.9-4.9-1-6.3-.3-3.7-1.9-6.4-4.3-7.3,3-1.1,4.4-4.3,4.4-7.4,0-5.6-4.4-8.4-9.6-8.4H198.2V36.8"/><polygon class="cls-1" points="74.5 43.6 71.5 43.6 71.5 41.7 79.6 41.7 79.6 43.6 76.6 43.6 76.6 51.6 74.5 51.6 74.5 43.6"/><path class="cls-1" d="M80.3,41.7h2v3.7h0a2.44,2.44,0,0,1,2.1-1.2c2.1,0,2.6,1.2,2.6,2.9v4.4H85v-4c0-1.2-.3-1.8-1.3-1.8s-1.5.6-1.5,2v3.7h-2l.1-9.7"/><path class="cls-1" d="M89.7,48.5q.15,1.8,1.8,1.8a1.65,1.65,0,0,0,1.5-.9h1.7a3.22,3.22,0,0,1-3.3,2.4,3.46,3.46,0,0,1-3.6-3.3v-.4a3.59,3.59,0,0,1,3.4-3.8h.3c2.4,0,3.6,2,3.5,4.2Zm3.2-1.2c-.2-1-.6-1.5-1.6-1.5a1.55,1.55,0,0,0-1.6,1.4v.1h3.2"/><path class="cls-1" d="M107.6,47.9c0,2.7-1.6,4-4.2,4s-4.2-1.3-4.2-4V41.8h2.2v6.1c0,1.1.3,2.1,2,2.1,1.5,0,2-.7,2-2.1V41.8h2.2v6.1"/><polygon class="cls-1" points="109 41.7 111.2 41.7 115.3 48.3 115.3 48.3 115.3 41.7 117.4 41.7 117.4 51.6 115.2 51.6 111.1 45 111.1 45 111.1 51.6 109 51.6 109 41.7"/><path class="cls-1" d="M124.2,43.4h2.4c1,0,1.5.4,1.5,1.4s-.5,1.4-1.5,1.4h-2.4Zm-2.1,8.2h2.2V47.8h2.2c1.1,0,1.5.5,1.6,1.5a6.72,6.72,0,0,0,.4,2.4h2.2a5.87,5.87,0,0,1-.4-2.3c-.1-1-.4-2-1.4-2.3h0a2.5,2.5,0,0,0,1.6-2.5,2.69,2.69,0,0,0-2.7-2.7h-5.5l-.2,9.7"/><path class="cls-1" d="M133.2,47.3a1.54,1.54,0,0,1,1.5-1.5h.1c.9,0,1.4.5,1.6,1.5Zm5.1,1.2c.1-2.2-1-4.2-3.5-4.2a3.5,3.5,0,0,0-3.6,3.5V48a3.4,3.4,0,0,0,3.2,3.7h.4a3.22,3.22,0,0,0,3.3-2.4h-1.7a1.49,1.49,0,0,1-1.5.9q-1.65,0-1.8-1.8l5.2.1"/><path class="cls-1" d="M139.6,45.8h-1.2V44.5h1.2V44a2.05,2.05,0,0,1,2-2.2h.4a3.08,3.08,0,0,1,1,.1v1.5h-.7c-.5,0-.7.2-.7.8v.4H143v1.3h-1.4v5.8h-2V45.8"/><path class="cls-1" d="M150.2,51.6h-1.9v-1h0a2.75,2.75,0,0,1-2.2,1.2c-2.1,0-2.6-1.2-2.6-2.9V44.5h2v4c0,1.2.4,1.8,1.3,1.8,1.1,0,1.5-.6,1.5-2V44.5h2v7.1"/><path class="cls-1" d="M154.7,49.9c-1.2,0-1.6-1.1-1.6-2.1s.5-2,1.6-2c1.3,0,1.7,1,1.7,2.2a1.73,1.73,0,0,1-1.5,2c-.1,0-.1,0-.2-.1m3.6-5.4h-1.9v1h0a2,2,0,0,0-2.1-1.1,3.21,3.21,0,0,0-3.1,3.5c0,1.8.9,3.6,3,3.6a2.36,2.36,0,0,0,2.1-1.1h0v.9c0,1-.5,1.8-1.6,1.8a1.33,1.33,0,0,1-1.5-1h-1.9c.1,1.6,1.7,2.3,3.1,2.3,3.3,0,3.7-2,3.7-3.2l.2-6.7"/><path class="cls-1" d="M161.2,47.3a1.54,1.54,0,0,1,1.5-1.5h.1c1,0,1.4.5,1.6,1.5Zm5.1,1.2c.1-2.2-1-4.2-3.5-4.2a3.5,3.5,0,0,0-3.6,3.5V48a3.4,3.4,0,0,0,3.2,3.7h.4a3.22,3.22,0,0,0,3.3-2.4h-1.7a1.49,1.49,0,0,1-1.5.9q-1.65,0-1.8-1.8l5.2.1"/><path class="cls-1" d="M168.9,47.3a1.5,1.5,0,0,1,1.6-1.5h.1c.9,0,1.4.5,1.6,1.5Zm5.1,1.2c.1-2.2-1-4.2-3.5-4.2a3.5,3.5,0,0,0-3.6,3.5V48a3.4,3.4,0,0,0,3.2,3.7h.4a3.15,3.15,0,0,0,3.3-2.4h-1.7a1.54,1.54,0,0,1-1.6.9q-1.65,0-1.8-1.8l5.3.1"/><path class="cls-1" d="M183,44.2h0l1.2,3.6h-2.6Zm-4.8,7.4h2.2l.8-2.2h3.7l.7,2.2h2.3l-3.7-9.8H182Z"/><path class="cls-1" d="M191.5,49.9c-1.2,0-1.6-1.1-1.6-2.1s.5-2,1.6-2c1.3,0,1.7,1,1.7,2.2a1.8,1.8,0,0,1-1.5,2c-.1,0-.2,0-.2-.1m3.5-5.4h-1.9v1h0a2.09,2.09,0,0,0-2.1-1.1,3.21,3.21,0,0,0-3.1,3.5c0,1.8.9,3.6,3.1,3.6a2.36,2.36,0,0,0,2.1-1.1h0v.9c0,1-.5,1.8-1.6,1.8a1.33,1.33,0,0,1-1.5-1h-1.9c.1,1.6,1.7,2.3,3.1,2.3,3.3,0,3.7-2,3.7-3.2l.1-6.7"/><path class="cls-1" d="M197.9,47.3a1.5,1.5,0,0,1,1.6-1.5h.1c.9,0,1.4.5,1.6,1.5Zm5.2,1.2c.1-2.2-1-4.2-3.5-4.2a3.56,3.56,0,0,0-3.6,3.5V48a3.4,3.4,0,0,0,3.2,3.7h.4a3.22,3.22,0,0,0,3.3-2.4h-1.7a1.54,1.54,0,0,1-1.6.9q-1.65,0-1.8-1.8l5.3.1"/><path class="cls-1" d="M203.9,44.5h1.9v1h.1a2.75,2.75,0,0,1,2.2-1.2c2.1,0,2.6,1.2,2.6,2.9v4.4h-2v-4c0-1.2-.3-1.8-1.3-1.8s-1.5.6-1.5,2v3.7h-2v-7"/><path class="cls-1" d="M216.6,47a1.32,1.32,0,0,0-1.4-1.2h0c-1.3,0-1.7,1.3-1.7,2.3s.4,2.2,1.6,2.2a1.62,1.62,0,0,0,1.6-1.4h1.9a3.08,3.08,0,0,1-3.4,2.9h0a3.46,3.46,0,0,1-3.6-3.3v-.3a3.43,3.43,0,0,1,3.2-3.8h.5a3.12,3.12,0,0,1,3.4,2.7l-2.1-.1"/><path class="cls-1" d="M223,52.5a2.21,2.21,0,0,1-2.5,1.6,4.87,4.87,0,0,1-1.2-.1V52.4c.4,0,.8.1,1.1.1a1.08,1.08,0,0,0,.8-1.1.37.37,0,0,0-.1-.3l-2.5-6.7h2.1l1.6,4.9h0l1.6-4.9h2L223,52.5"/></svg>